<svg width="40" height="40" viewBox="0 0 40 40" fill="none" xmlns="http://www.w3.org/2000/svg">
<path d="M28.4 30.5H28.2428L29.3984 28.7454C29.5299 28.5458 29.6001 28.3113 29.6 28.0714V17.1429C29.6 5.13964 20.0961 5 20.0001 5C19.6819 5 19.3767 5.12793 19.1516 5.35566C18.9266 5.58338 18.8001 5.89224 18.8001 6.21429V8.64286H17.6002C17.3501 8.64318 17.1063 8.72257 16.903 8.86993L8.50306 14.9414C8.29411 15.0922 8.13846 15.3069 8.05898 15.5538C7.9795 15.8008 7.98037 16.0671 8.06146 16.3135L9.26145 19.9564C9.35048 20.2259 9.53014 20.4554 9.76915 20.6047C10.0082 20.7541 10.2914 20.8138 10.5694 20.7736L16.4134 19.9284L11.7814 27.4279C11.6592 27.6262 11.596 27.8559 11.5997 28.0897C11.6033 28.3234 11.6735 28.551 11.8018 28.7454L12.9586 30.5H12.8002C11.8457 30.501 10.9306 30.8851 10.2557 31.568C9.58079 32.251 9.2012 33.177 9.20025 34.1429V39H32V34.1429C31.999 33.177 31.6195 32.251 30.9445 31.568C30.2696 30.8851 29.3545 30.501 28.4 30.5ZM19.8177 19.0007C19.939 18.8044 20.0023 18.5772 20.0002 18.3457C19.9981 18.1142 19.9306 17.8882 19.8058 17.6943C19.6809 17.5003 19.5039 17.3465 19.2955 17.2509C19.0872 17.1554 18.8562 17.1221 18.6297 17.155L11.221 18.226L10.6186 16.3949L17.9842 11.0714H19.9989C20.317 11.0714 20.622 10.9437 20.847 10.7162C21.072 10.4887 21.1986 10.1802 21.1989 9.85836L21.2001 7.58521C23.0013 7.992 26.2605 9.45643 27.0321 14.7143H23.6001V17.1429H27.2001V19.5714H23.6001V22H27.2001V24.4286H23.6001V26.8571H27.2001V27.7035L25.3581 30.5H15.8422L14.2282 28.0496L19.8177 19.0007ZM29.6 36.5714H11.6002V34.1429C11.6002 33.8208 11.7267 33.5119 11.9517 33.2842C12.1767 33.0565 12.482 32.9286 12.8002 32.9286H28.4C28.7183 32.9286 29.0235 33.0565 29.2486 33.2842C29.4736 33.5119 29.6 33.8208 29.6 34.1429V36.5714Z" fill="#FDE004"/>
</svg>
